HIERARCHY
ROOT SpineBase
{
  OFFSET 0.000000 0.000000 0.000000
  CHANNELS 6 Xposition Yposition Zposition Zrotation Xrotation Yrotation
  JOINT SpineMid
  {
    OFFSET 0.000000 28.230963 0.000000
    CHANNELS 3 Zrotation Xrotation Yrotation
    JOINT SpineShoulder
    {
      OFFSET -0.267096 20.779856 -0.616979
      CHANNELS 3 Zrotation Xrotation Yrotation
      JOINT Neck
      {
        OFFSET -0.156186 6.836455 -0.472800
        CHANNELS 3 Zrotation Xrotation Yrotation
        JOINT Head
        {
          OFFSET -0.278315 13.624117 -2.652374
          CHANNELS 3 Zrotation Xrotation Yrotation
          End Site
          {
            OFFSET 0 0 0
          }
        }
      }
      JOINT ShoulderLeft
      {
        OFFSET -16.247200 -2.236159 -0.291210
        CHANNELS 3 Zrotation Xrotation Yrotation
        JOINT ElbowLeft
        {
          OFFSET -6.057246 -21.386950 0.327748
          CHANNELS 3 Zrotation Xrotation Yrotation
          JOINT WristLeft
          {
            OFFSET 7.102213 -8.841806 -19.096458
            CHANNELS 3 Zrotation Xrotation Yrotation
            JOINT HandLeft
            {
              OFFSET 2.151227 -0.710919 -8.367757
              CHANNELS 3 Zrotation Xrotation Yrotation
              JOINT HandTipLeft
              {
                OFFSET -0.034097 -4.168817 -7.308072
                CHANNELS 3 Zrotation Xrotation Yrotation
                End Site
                {
                  OFFSET 0 0 0
                }
              }
              JOINT ThumbLeft
              {
                OFFSET 1.124887 3.608693 -2.093435
                CHANNELS 3 Zrotation Xrotation Yrotation
                End Site
                {
                  OFFSET 0 0 0
                }
              }
            }
          }
        }
      }
      JOINT ShoulderRight
      {
        OFFSET 15.400284 -2.971977 -4.418105
        CHANNELS 3 Zrotation Xrotation Yrotation
        JOINT ElbowRight
        {
          OFFSET -3.342083 -14.175497 -10.334085
          CHANNELS 3 Zrotation Xrotation Yrotation
          JOINT WristRight
          {
            OFFSET -12.555540 -10.647568 -16.712290
            CHANNELS 3 Zrotation Xrotation Yrotation
            JOINT HandRight
            {
              OFFSET -5.850379 -3.739616 -8.748736
              CHANNELS 3 Zrotation Xrotation Yrotation
              JOINT HandTipRight
              {
                OFFSET -3.713971 -1.653674 -1.742323
                CHANNELS 3 Zrotation Xrotation Yrotation
                End Site
                {
                  OFFSET 0 0 0
                }
              }
              JOINT ThumbRight
              {
                OFFSET -5.812852 -1.483031 7.209252
                CHANNELS 3 Zrotation Xrotation Yrotation
                End Site
                {
                  OFFSET 0 0 0
                }
              }
            }
          }
        }
      }
    }
  }
  JOINT HipLeft
  {
    OFFSET -7.290265 0.287174 -2.060806
    CHANNELS 3 Zrotation Xrotation Yrotation
    JOINT KneeLeft
    {
      OFFSET 1.032629 -39.464720 7.232054
      CHANNELS 3 Zrotation Xrotation Yrotation
      JOINT AnkleLeft
      {
        OFFSET 1.659790 -34.261132 9.505560
        CHANNELS 3 Zrotation Xrotation Yrotation
        JOINT FootLeft
        {
          OFFSET 4.583129 -6.792421 -5.733733
          CHANNELS 3 Zrotation Xrotation Yrotation
          End Site
          {
            OFFSET 0 0 0
          }
        }
      }
    }
  }
  JOINT HipRight
  {
    OFFSET 5.888100 0.756450 -4.136652
    CHANNELS 3 Zrotation Xrotation Yrotation
    JOINT KneeRight
    {
      OFFSET 3.896142 -34.591200 3.975939
      CHANNELS 3 Zrotation Xrotation Yrotation
      JOINT AnkleRight
      {
        OFFSET 3.830488 -42.293296 7.529040
        CHANNELS 3 Zrotation Xrotation Yrotation
        JOINT FootRight
        {
          OFFSET 1.634373 -7.063349 -6.725403
          CHANNELS 3 Zrotation Xrotation Yrotation
          End Site
          {
            OFFSET 0 0 0
          }
        }
      }
    }
  }
}
MOTION
Frames: 7
Frame Time: 0.033333
75.026550 82.228555 341.185267 0.343167 -4.600131 1.884226 -0.375332 -1.204944 -1.931799 -0.087268 -0.240589 -0.064829 -5.408219 2.993619 -0.552033 0.000000 0.000000 0.000000 -11.133629 -6.655741 3.416655 -12.554316 -37.378911 1.071506 2.215830 -12.173138 -6.714567 13.093517 10.772816 -18.804028 0.000000 0.000000 0.000000 0.000000 0.000000 0.000000 65.772223 23.796419 -69.112822 -78.993625 21.598843 -24.240815 -1.283811 -10.036943 5.668466 -102.085215 -20.180777 -34.759634 0.000000 0.000000 0.000000 0.000000 0.000000 0.000000 -0.741880 3.230477 -1.953645 2.679451 0.644761 0.649596 -31.999604 -16.241382 13.467453 0.000000 0.000000 0.000000 -1.144715 9.264035 -1.349879 1.784042 -7.521877 -0.408533 0.550469 4.570230 -0.762775 0.000000 0.000000 0.000000
75.005719 82.542923 341.173014 0.400967 -5.441612 4.023633 -0.513947 -1.603350 -4.077980 -0.000313 -0.443748 -0.080471 -4.663756 2.567387 -0.419649 0.000000 0.000000 0.000000 -9.502233 -8.534213 4.397112 -16.192598 -38.188053 0.329969 0.390229 -16.460985 -7.260015 14.901869 15.362149 -17.964649 0.000000 0.000000 0.000000 0.000000 0.000000 0.000000 59.558836 38.146646 -65.788773 -67.829330 21.046168 -21.623670 -7.161092 -12.589418 7.919581 -80.118703 -6.950142 -28.116422 0.000000 0.000000 0.000000 0.000000 0.000000 0.000000 -0.665880 4.655117 -4.076240 2.810448 0.245023 0.690382 -31.762519 -10.724027 19.420015 0.000000 0.000000 0.000000 -1.371958 10.126433 -3.493796 2.580239 -7.568048 -0.261482 -3.837651 9.334984 4.420061 0.000000 0.000000 0.000000
75.179334 82.649305 341.385762 0.665068 -6.682160 7.341247 -0.886948 -1.631823 -7.374241 -0.087514 -0.820703 -0.102984 -2.946198 2.621259 -0.196488 0.000000 0.000000 0.000000 -7.580092 -9.849756 5.380369 -19.142294 -38.251659 0.314341 -1.509099 -18.158062 -9.480763 16.410070 17.591215 -16.271844 0.000000 0.000000 0.000000 0.000000 0.000000 0.000000 50.581001 47.780555 -58.116145 -58.900754 17.733562 -17.349485 -17.755246 -4.031235 8.628923 -51.359035 1.995457 -34.386396 0.000000 0.000000 0.000000 0.000000 0.000000 0.000000 -0.939291 7.005004 -7.385942 3.470737 -0.455207 0.847188 -31.784343 1.985328 30.946581 0.000000 0.000000 0.000000 -1.085310 11.381630 -6.818037 2.821680 -7.365272 -0.201393 -11.483874 14.771163 13.310670 0.000000 0.000000 0.000000
75.593319 82.756209 341.752877 1.240126 -8.155684 12.069683 -1.423361 -1.386418 -12.024327 -0.020557 -1.288481 -0.120282 -0.635250 3.080231 0.057669 0.000000 0.000000 0.000000 -5.002435 -10.968166 6.407982 -21.469860 -36.359846 1.698343 -1.134547 -18.151953 -9.202828 15.877927 16.570319 -18.334864 0.000000 0.000000 0.000000 0.000000 0.000000 0.000000 37.000670 53.348795 -45.205514 -47.763698 11.116766 -13.092158 -23.933468 1.372635 11.810429 -21.559294 7.749350 -40.163231 0.000000 0.000000 0.000000 0.000000 0.000000 0.000000 -1.019280 9.908014 -12.075182 3.928874 -1.178296 0.957139 -33.132762 6.268696 36.230099 0.000000 0.000000 0.000000 -0.311053 12.493742 -11.609723 2.408495 -6.572929 -0.227613 -13.612088 14.732400 15.774747 0.000000 0.000000 0.000000
76.174034 82.858005 342.332950 2.041256 -9.756204 17.803047 -1.976113 -1.216601 -17.622591 0.116164 -1.728904 -0.128352 1.844842 4.046405 0.247627 0.000000 0.000000 0.000000 -2.258435 -11.524684 7.394867 -23.740737 -34.168089 3.799058 0.697574 -16.462011 -7.976310 14.186637 13.960270 -20.074731 0.000000 0.000000 0.000000 0.000000 0.000000 0.000000 21.769683 52.526243 -29.897059 -37.415198 4.232722 -7.487023 -22.376930 4.121815 13.854338 1.788738 5.235832 -44.491809 0.000000 0.000000 0.000000 0.000000 0.000000 0.000000 -0.583397 13.328291 -17.787951 4.267881 -2.081221 1.035352 -32.928306 6.413574 36.767825 0.000000 0.000000 0.000000 0.913286 13.565927 -17.445431 1.559061 -5.543258 -0.311208 -16.396964 12.882337 18.792603 0.000000 0.000000 0.000000
76.851108 82.936311 342.966722 2.937818 -11.437819 23.928505 -2.336683 -0.935648 -23.567751 0.257600 -1.950148 -0.120216 4.246141 5.611098 0.301768 0.000000 0.000000 0.000000 0.429756 -11.355537 8.059233 -25.492543 -31.433793 6.924661 1.185197 -16.230380 -7.867671 14.042891 14.987603 -22.223431 0.000000 0.000000 0.000000 0.000000 0.000000 0.000000 10.448857 47.318956 -18.062755 -26.102099 -4.354652 -1.180855 -12.480664 1.700579 12.590764 15.990187 2.371460 -47.318627 0.000000 0.000000 0.000000 0.000000 0.000000 0.000000 0.725185 16.803830 -24.003951 4.273197 -3.020370 1.015294 -33.562260 5.612324 38.029493 0.000000 0.000000 0.000000 2.482000 14.392803 -23.719009 0.538676 -4.327677 -0.385099 -21.270841 15.236699 24.827297 0.000000 0.000000 0.000000
77.540329 82.957906 343.567866 3.916449 -13.290001 29.732692 -2.501422 -0.759579 -29.153483 0.392595 -2.015352 -0.099911 6.631543 7.466266 0.182330 0.000000 0.000000 0.000000 2.930051 -10.602004 8.474975 -28.123184 -30.390509 8.963066 3.868733 -13.697097 -5.951835 12.864225 14.422319 -21.671744 0.000000 0.000000 0.000000 0.000000 0.000000 0.000000 3.014678 39.615988 -9.817647 -14.550716 -9.242136 3.754474 -5.577393 -0.268103 10.198112 20.290073 0.095575 -46.835053 0.000000 0.000000 0.000000 0.000000 0.000000 0.000000 2.766468 20.076092 -30.053358 3.913264 -3.828197 0.869643 -34.829520 3.183047 39.236293 0.000000 0.000000 0.000000 4.229876 15.187504 -29.684069 -0.494275 -3.082791 -0.429843 -26.776242 13.697354 30.758332 0.000000 0.000000 0.000000
